<svg xmlns="http://www.w3.org/2000/svg" xmlns:xlink="http://www.w3.org/1999/xlink" width="500" zoomAndPan="magnify" viewBox="0 0 375 374.999991" height="500" preserveAspectRatio="xMidYMid meet" version="1.0"><defs><g/><clipPath id="0047d114c7"><rect x="0" width="69" y="0" height="182"/></clipPath><clipPath id="e473dc82d8"><rect x="0" width="181" y="0" height="114"/></clipPath><clipPath id="b5582816f0"><rect x="0" width="146" y="0" height="198"/></clipPath><clipPath id="f3bdad28e6"><rect x="0" width="156" y="0" height="201"/></clipPath><clipPath id="197212d41f"><rect x="0" width="117" y="0" height="193"/></clipPath><clipPath id="52508c18ff"><rect x="0" width="146" y="0" height="199"/></clipPath><clipPath id="cbcf324b86"><rect x="0" width="135" y="0" height="188"/></clipPath><clipPath id="39e5a41ebe"><rect x="0" width="196" y="0" height="210"/></clipPath><clipPath id="ca6d866291"><rect x="0" width="210" y="0" height="197"/></clipPath><clipPath id="bdf9f63934"><path d="M 225 11 L 254 11 L 254 85 L 225 85 Z M 225 11 " clip-rule="nonzero"/></clipPath><clipPath id="47943379a8"><path d="M 222.261719 11.125 L 354.988281 8.65625 L 357.175781 126.386719 L 224.449219 128.855469 Z M 222.261719 11.125 " clip-rule="nonzero"/></clipPath><clipPath id="1b9d30ebbf"><path d="M 222.261719 11.125 L 354.988281 8.65625 L 357.175781 126.386719 L 224.449219 128.855469 Z M 222.261719 11.125 " clip-rule="nonzero"/></clipPath><clipPath id="b022b209f1"><path d="M 260 10 L 292 10 L 292 92 L 260 92 Z M 260 10 " clip-rule="nonzero"/></clipPath><clipPath id="82abdcfb84"><path d="M 222.261719 11.125 L 354.988281 8.65625 L 357.175781 126.386719 L 224.449219 128.855469 Z M 222.261719 11.125 " clip-rule="nonzero"/></clipPath><clipPath id="7efcda3513"><path d="M 222.261719 11.125 L 354.988281 8.65625 L 357.175781 126.386719 L 224.449219 128.855469 Z M 222.261719 11.125 " clip-rule="nonzero"/></clipPath><clipPath id="42402ddb0c"><path d="M 281 31 L 330 31 L 330 104 L 281 104 Z M 281 31 " clip-rule="nonzero"/></clipPath><clipPath id="9e387bf1be"><path d="M 222.261719 11.125 L 354.988281 8.65625 L 357.175781 126.386719 L 224.449219 128.855469 Z M 222.261719 11.125 " clip-rule="nonzero"/></clipPath><clipPath id="01ec8e3ae4"><path d="M 222.261719 11.125 L 354.988281 8.65625 L 357.175781 126.386719 L 224.449219 128.855469 Z M 222.261719 11.125 " clip-rule="nonzero"/></clipPath><clipPath id="7751c94885"><path d="M 287 94 L 356 94 L 356 128 L 287 128 Z M 287 94 " clip-rule="nonzero"/></clipPath><clipPath id="b6a5ee9448"><path d="M 222.261719 11.125 L 354.988281 8.65625 L 357.175781 126.386719 L 224.449219 128.855469 Z M 222.261719 11.125 " clip-rule="nonzero"/></clipPath><clipPath id="e2604abdb8"><path d="M 222.261719 11.125 L 354.988281 8.65625 L 357.175781 126.386719 L 224.449219 128.855469 Z M 222.261719 11.125 " clip-rule="nonzero"/></clipPath></defs><g transform="matrix(1, 0, 0, 1, 114, 114)"><g clip-path="url(#0047d114c7)"><g fill="#1e1e1e" fill-opacity="1"><g transform="translate(0.696979, 106.956732)"><g><path d="M 66.71875 -68.21875 C 66.71875 -65.445312 66.1875 -62.160156 65.125 -58.359375 C 64.0625 -54.566406 62.445312 -50.578125 60.28125 -46.390625 C 58.125 -42.210938 55.320312 -38.097656 51.875 -34.046875 C 48.4375 -30.003906 44.375 -26.242188 39.6875 -22.765625 C 35.007812 -19.296875 29.632812 -16.40625 23.5625 -14.09375 C 17.5 -11.789062 10.707031 -10.359375 3.1875 -9.796875 L 3.1875 -28.734375 C 7.875 -29.160156 12.0625 -29.90625 15.75 -30.96875 C 15.113281 -33.664062 14.582031 -36.734375 14.15625 -40.171875 C 13.726562 -43.609375 13.515625 -47.957031 13.515625 -53.21875 C 13.515625 -58.53125 14.171875 -63.773438 15.484375 -68.953125 C 16.796875 -74.140625 18.710938 -78.820312 21.234375 -83 C 23.753906 -87.1875 26.785156 -90.539062 30.328125 -93.0625 C 33.878906 -95.582031 37.890625 -96.84375 42.359375 -96.84375 C 47.890625 -96.84375 52.460938 -95.632812 56.078125 -93.21875 C 59.703125 -90.8125 62.378906 -87.460938 64.109375 -83.171875 C 65.847656 -78.878906 66.71875 -73.894531 66.71875 -68.21875 Z M 31.921875 -38.953125 C 35.972656 -42.003906 39.21875 -45.320312 41.65625 -48.90625 C 44.101562 -52.488281 45.878906 -56.035156 46.984375 -59.546875 C 48.085938 -63.054688 48.640625 -66.085938 48.640625 -68.640625 C 48.640625 -75.453125 46.546875 -78.859375 42.359375 -78.859375 C 40.367188 -78.859375 38.664062 -77.96875 37.25 -76.1875 C 35.832031 -74.414062 34.660156 -72.113281 33.734375 -69.28125 C 32.816406 -66.445312 32.144531 -63.378906 31.71875 -60.078125 C 31.289062 -56.773438 31.078125 -53.597656 31.078125 -50.546875 C 31.078125 -48.347656 31.144531 -46.269531 31.28125 -44.3125 C 31.425781 -42.363281 31.640625 -40.578125 31.921875 -38.953125 Z M 37.5625 -17.875 C 40.613281 -11.132812 44.675781 -6.078125 49.75 -2.703125 C 54.820312 0.660156 60.09375 2.734375 65.5625 3.515625 L 65.5625 26.8125 C 61.445312 26.320312 57.207031 25.132812 52.84375 23.25 C 48.476562 21.375 44.289062 18.835938 40.28125 15.640625 C 36.269531 12.453125 32.613281 8.640625 29.3125 4.203125 C 26.019531 -0.234375 23.304688 -5.253906 21.171875 -10.859375 C 23.867188 -11.421875 26.035156 -12.054688 27.671875 -12.765625 C 29.304688 -13.472656 30.847656 -14.253906 32.296875 -15.109375 C 33.753906 -15.960938 35.507812 -16.882812 37.5625 -17.875 Z M 37.5625 -17.875 "/></g></g></g></g></g><g transform="matrix(1, 0, 0, 1, 9, 111)"><g clip-path="url(#e473dc82d8)"><g fill="#1e1e1e" fill-opacity="1"><g transform="translate(74.627956, 7.445683)"><g><path d="M 52.921875 51.453125 C 50.890625 55.242188 48.023438 58.472656 44.328125 61.140625 C 40.640625 63.816406 36.582031 65.875 32.15625 67.3125 C 27.726562 68.757812 23.265625 69.484375 18.765625 69.484375 C 10.472656 69.484375 2.726562 68.742188 -4.46875 67.265625 C -11.675781 65.796875 -18.003906 63.441406 -23.453125 60.203125 C -28.898438 56.972656 -33.148438 52.722656 -36.203125 47.453125 C -39.265625 42.179688 -40.796875 35.75 -40.796875 28.15625 C -40.796875 21.476562 -39.65625 15.535156 -37.375 10.328125 C -35.09375 5.128906 -31.945312 1.054688 -27.9375 -1.890625 C -23.9375 -4.847656 -19.4375 -6.328125 -14.4375 -6.328125 C -8.957031 -6.328125 -4.40625 -5.203125 -0.78125 -2.953125 C 2.832031 -0.703125 5.675781 2.351562 7.75 6.21875 C 9.820312 10.082031 11.226562 14.523438 11.96875 19.546875 C 12.707031 24.578125 12.9375 29.921875 12.65625 35.578125 C 12.375 41.242188 11.707031 46.921875 10.65625 52.609375 C 11.84375 52.753906 13.035156 52.859375 14.234375 52.921875 C 15.429688 52.992188 16.695312 53.066406 18.03125 53.140625 C 20.207031 53.210938 22.421875 53.070312 24.671875 52.71875 C 26.921875 52.363281 29.097656 51.875 31.203125 51.25 C 28.671875 49.414062 26.351562 46.914062 24.25 43.75 C 22.144531 40.59375 20.472656 36.867188 19.234375 32.578125 C 18.003906 28.296875 17.425781 23.550781 17.5 18.34375 C 17.5 13.351562 18.867188 9.378906 21.609375 6.421875 C 24.359375 3.472656 28.035156 1.539062 32.640625 0.625 C 37.242188 -0.28125 42.375 -0.15625 48.03125 1 C 53.6875 2.15625 59.394531 4.351562 65.15625 7.59375 L 65.15625 28.78125 C 61.4375 26.53125 57.675781 24.507812 53.875 22.71875 C 50.082031 20.925781 46.601562 19.644531 43.4375 18.875 C 40.28125 18.101562 37.734375 18.082031 35.796875 18.8125 C 33.859375 19.550781 32.890625 21.296875 32.890625 24.046875 C 32.890625 28.253906 33.609375 31.640625 35.046875 34.203125 C 36.492188 36.773438 38.445312 38.394531 40.90625 39.0625 C 43.363281 39.726562 46.070312 39.328125 49.03125 37.859375 L 49.03125 38.28125 Z M 5.171875 71.90625 C 3.335938 77.101562 0.929688 82.441406 -2.046875 87.921875 C -5.035156 93.410156 -8.609375 99.003906 -12.765625 104.703125 L -41.640625 104.703125 C -34.753906 97.109375 -28.972656 90.34375 -24.296875 84.40625 C -19.628906 78.46875 -15.816406 73 -12.859375 68 C -10.046875 68.988281 -7.144531 69.796875 -4.15625 70.421875 C -1.175781 71.054688 1.929688 71.550781 5.171875 71.90625 Z M -24.046875 28.25 C -24.046875 33.457031 -22.234375 37.75 -18.609375 41.125 C -14.992188 44.5 -10.375 47.171875 -4.75 49.140625 C -3.6875 45.203125 -2.941406 41.070312 -2.515625 36.75 C -2.097656 32.425781 -2.117188 28.382812 -2.578125 24.625 C -3.035156 20.863281 -4.109375 17.804688 -5.796875 15.453125 C -7.484375 13.097656 -9.910156 11.921875 -13.078125 11.921875 C -16.234375 11.921875 -18.847656 13.34375 -20.921875 16.1875 C -23.003906 19.03125 -24.046875 23.050781 -24.046875 28.25 Z M -24.046875 28.25 "/></g></g></g></g></g><g transform="matrix(1, 0, 0, 1, 156, 48)"><g clip-path="url(#b5582816f0)"><g fill="#1e1e1e" fill-opacity="1"><g transform="translate(26.542756, 106.553536)"><g><path d="M -14.015625 12.109375 C -13.023438 6.710938 -11.09375 2.441406 -8.21875 -0.703125 C -5.351562 -3.859375 -1.832031 -6.101562 2.34375 -7.4375 C 6.519531 -8.78125 11.144531 -9.359375 16.21875 -9.171875 C 21.300781 -8.992188 26.597656 -8.253906 32.109375 -6.953125 C 37.617188 -5.648438 43.082031 -3.96875 48.5 -1.90625 C 48.84375 -3.039062 49.15625 -4.191406 49.4375 -5.359375 C 49.726562 -6.523438 50.03125 -7.757812 50.34375 -9.0625 C 51.070312 -12.644531 51.304688 -16.351562 51.046875 -20.1875 C 50.785156 -24.019531 50.078125 -27.632812 48.921875 -31.03125 C 47.765625 -34.425781 46.160156 -37.273438 44.109375 -39.578125 C 42.066406 -41.878906 39.628906 -43.289062 36.796875 -43.8125 C 33.546875 -44.414062 30.757812 -44.144531 28.4375 -43 C 26.125 -41.851562 24.734375 -40 24.265625 -37.4375 C 23.816406 -35.019531 24.460938 -32.828125 26.203125 -30.859375 C 27.953125 -28.898438 30.453125 -27.617188 33.703125 -27.015625 C 35.710938 -26.648438 37.851562 -26.613281 40.125 -26.90625 C 42.40625 -27.207031 44.679688 -27.71875 46.953125 -28.4375 C 47.585938 -26.113281 48.015625 -23.585938 48.234375 -20.859375 C 48.453125 -18.140625 48.410156 -15.414062 48.109375 -12.6875 C 45.140625 -12.082031 42.082031 -11.765625 38.9375 -11.734375 C 35.800781 -11.710938 32.988281 -11.929688 30.5 -12.390625 C 25.164062 -13.378906 20.601562 -15.328125 16.8125 -18.234375 C 13.03125 -21.140625 10.25 -24.5625 8.46875 -28.5 C 6.695312 -32.445312 6.191406 -36.488281 6.953125 -40.625 C 7.722656 -44.78125 9.640625 -48.394531 12.703125 -51.46875 C 15.773438 -54.550781 19.597656 -56.78125 24.171875 -58.15625 C 28.742188 -59.53125 33.695312 -59.722656 39.03125 -58.734375 C 44.5625 -57.710938 49.410156 -55.726562 53.578125 -52.78125 C 57.753906 -49.832031 61.023438 -45.859375 63.390625 -40.859375 C 65.191406 -43.234375 66.71875 -45.894531 67.96875 -48.84375 C 69.226562 -51.800781 70.1875 -55.070312 70.84375 -58.65625 L 92.9375 -54.59375 C 91.34375 -45.957031 88.363281 -38.71875 84 -32.875 C 79.632812 -27.03125 74.25 -22.410156 67.84375 -19.015625 C 67.757812 -15.097656 67.332031 -11.03125 66.5625 -6.8125 C 65.050781 1.34375 62.8125 8.804688 59.84375 15.578125 C 56.882812 22.359375 53.179688 28.109375 48.734375 32.828125 C 44.285156 37.546875 39.085938 40.910156 33.140625 42.921875 C 27.203125 44.941406 20.5 45.265625 13.03125 43.890625 C 6.46875 42.679688 1.007812 40.515625 -3.34375 37.390625 C -7.707031 34.265625 -10.800781 30.5 -12.625 26.09375 C -14.457031 21.6875 -14.921875 17.023438 -14.015625 12.109375 Z M 59.359375 24.015625 C 60.847656 21.429688 62.171875 18.726562 63.328125 15.90625 C 64.492188 13.082031 65.539062 10.109375 66.46875 6.984375 C 71.25 9.742188 76.066406 13.082031 80.921875 17 C 85.773438 20.925781 90.625 25.445312 95.46875 30.5625 L 90.234375 58.96875 C 84.023438 50.820312 78.421875 43.914062 73.421875 38.25 C 68.421875 32.582031 63.734375 27.835938 59.359375 24.015625 Z M 4.15625 14.0625 C 3.582031 17.164062 4.160156 19.929688 5.890625 22.359375 C 7.628906 24.796875 11.054688 26.484375 16.171875 27.421875 C 21.285156 28.367188 26.175781 27.429688 30.84375 24.609375 C 35.507812 21.796875 39.316406 17.800781 42.265625 12.625 C 38.585938 10.863281 34.660156 9.382812 30.484375 8.1875 C 26.316406 6.988281 22.335938 6.273438 18.546875 6.046875 C 14.765625 5.816406 11.5625 6.316406 8.9375 7.546875 C 6.320312 8.773438 4.726562 10.945312 4.15625 14.0625 Z M 4.15625 14.0625 "/></g></g></g></g></g><g transform="matrix(1, 0, 0, 1, 142, 109)"><g clip-path="url(#f3bdad28e6)"><g fill="#1e1e1e" fill-opacity="1"><g transform="translate(123.262486, 104.593187)"><g><path d="M -105.75 53.71875 C -107.28125 46.601562 -107.484375 39.929688 -106.359375 33.703125 C -105.234375 27.472656 -103.226562 21.734375 -100.34375 16.484375 C -97.457031 11.234375 -94.0625 6.539062 -90.15625 2.40625 C -86.257812 -1.726562 -82.242188 -5.207031 -78.109375 -8.03125 C -73.972656 -10.851562 -70.15625 -12.992188 -66.65625 -14.453125 C -66.332031 -16.941406 -65.78125 -19.460938 -65 -22.015625 C -64.226562 -24.566406 -63.269531 -27.046875 -62.125 -29.453125 L -43.265625 -20.515625 C -44.910156 -17.328125 -46.097656 -13.898438 -46.828125 -10.234375 C -47.554688 -6.578125 -47.804688 -3.019531 -47.578125 0.4375 C -47.347656 3.894531 -46.550781 6.972656 -45.1875 9.671875 C -43.832031 12.367188 -41.847656 14.335938 -39.234375 15.578125 C -36.316406 16.960938 -33.660156 17.382812 -31.265625 16.84375 C -28.878906 16.3125 -27.160156 14.9375 -26.109375 12.71875 C -25.078125 10.550781 -25.101562 8.351562 -26.1875 6.125 C -27.269531 3.90625 -29.269531 2.101562 -32.1875 0.71875 C -36 -1.09375 -40.242188 -1.820312 -44.921875 -1.46875 C -44.984375 -3.820312 -44.800781 -6.296875 -44.375 -8.890625 C -43.957031 -11.492188 -43.257812 -14.082031 -42.28125 -16.65625 C -35.59375 -15.976562 -29.992188 -14.570312 -25.484375 -12.4375 C -20.722656 -10.175781 -16.945312 -7.195312 -14.15625 -3.5 C -11.363281 0.1875 -9.644531 4.109375 -9 8.265625 C -8.363281 12.421875 -8.921875 16.34375 -10.671875 20.03125 C -12.410156 23.707031 -15.085938 26.613281 -18.703125 28.75 C -22.328125 30.882812 -26.445312 32.023438 -31.0625 32.171875 C -35.6875 32.316406 -40.378906 31.257812 -45.140625 29 C -50.472656 26.476562 -54.832031 23.085938 -58.21875 18.828125 C -61.613281 14.578125 -64.023438 9.859375 -65.453125 4.671875 C -69.429688 7.140625 -72.785156 10.273438 -75.515625 14.078125 C -78.242188 17.878906 -80.378906 22.019531 -81.921875 26.5 C -83.472656 30.976562 -84.40625 35.59375 -84.71875 40.34375 C -85.03125 45.101562 -84.710938 49.726562 -83.765625 54.21875 C -82.816406 58.707031 -81.226562 62.800781 -79 66.5 Z M -105.75 53.71875 "/></g></g></g></g></g><g transform="matrix(1, 0, 0, 1, 11, 151)"><g clip-path="url(#197212d41f)"><g fill="#1e1e1e" fill-opacity="1"><g transform="translate(13.782507, 104.524164)"><g><path d="M 88.359375 -79.125 C 91.660156 -72.65625 93.566406 -66.265625 94.078125 -59.953125 C 94.597656 -53.640625 94.144531 -47.578125 92.71875 -41.765625 C 91.289062 -35.953125 89.21875 -30.539062 86.5 -25.53125 C 83.789062 -20.53125 80.800781 -16.132812 77.53125 -12.34375 C 74.269531 -8.550781 71.140625 -5.503906 68.140625 -3.203125 C 68.453125 -0.710938 68.5625 1.863281 68.46875 4.53125 C 68.375 7.195312 68.085938 9.84375 67.609375 12.46875 L 47.078125 8.671875 C 47.859375 5.179688 48.128906 1.570312 47.890625 -2.15625 C 47.648438 -5.882812 46.972656 -9.390625 45.859375 -12.671875 C 44.753906 -15.953125 43.191406 -18.722656 41.171875 -20.984375 C 39.160156 -23.242188 36.734375 -24.632812 33.890625 -25.15625 C 30.722656 -25.738281 28.050781 -25.460938 25.875 -24.328125 C 23.707031 -23.203125 22.398438 -21.429688 21.953125 -19.015625 C 21.515625 -16.660156 22.101562 -14.546875 23.71875 -12.671875 C 25.34375 -10.796875 27.738281 -9.566406 30.90625 -8.984375 C 35.0625 -8.222656 39.351562 -8.613281 43.78125 -10.15625 C 44.445312 -7.882812 44.910156 -5.4375 45.171875 -2.8125 C 45.429688 -0.195312 45.425781 2.472656 45.15625 5.203125 C 38.507812 6.273438 32.734375 6.359375 27.828125 5.453125 C 22.640625 4.492188 18.21875 2.585938 14.5625 -0.265625 C 10.914062 -3.117188 8.25 -6.46875 6.5625 -10.3125 C 4.875 -14.15625 4.398438 -18.085938 5.140625 -22.109375 C 5.878906 -26.109375 7.722656 -29.601562 10.671875 -32.59375 C 13.617188 -35.59375 17.300781 -37.757812 21.71875 -39.09375 C 26.144531 -40.425781 30.953125 -40.613281 36.140625 -39.65625 C 41.953125 -38.582031 47.039062 -36.425781 51.40625 -33.1875 C 55.78125 -29.945312 59.320312 -26.007812 62.03125 -21.375 C 65.238281 -24.789062 67.675781 -28.6875 69.34375 -33.0625 C 71.007812 -37.4375 72.007812 -41.984375 72.34375 -46.703125 C 72.675781 -51.429688 72.378906 -56.128906 71.453125 -60.796875 C 70.535156 -65.472656 69.039062 -69.859375 66.96875 -73.953125 C 64.90625 -78.054688 62.320312 -81.601562 59.21875 -84.59375 Z M 88.359375 -79.125 "/></g></g></g></g></g><g transform="matrix(1, 0, 0, 1, 78, 158)"><g clip-path="url(#52508c18ff)"><g fill="#1e1e1e" fill-opacity="1"><g transform="translate(21.521598, 106.153144)"><g><path d="M 60.1875 -42.71875 C 63.550781 -40.03125 66.210938 -36.628906 68.171875 -32.515625 C 70.128906 -28.398438 71.414062 -24.035156 72.03125 -19.421875 C 72.644531 -14.804688 72.546875 -10.285156 71.734375 -5.859375 C 70.222656 2.296875 68.09375 9.78125 65.34375 16.59375 C 62.59375 23.414062 59.128906 29.207031 54.953125 33.96875 C 50.785156 38.738281 45.832031 42.148438 40.09375 44.203125 C 34.363281 46.265625 27.765625 46.609375 20.296875 45.234375 C 13.734375 44.015625 8.097656 41.8125 3.390625 38.625 C -1.316406 35.4375 -4.753906 31.609375 -6.921875 27.140625 C -9.097656 22.671875 -9.734375 17.976562 -8.828125 13.0625 C -7.835938 7.664062 -5.90625 3.390625 -3.03125 0.234375 C -0.164062 -2.910156 3.347656 -5.148438 7.515625 -6.484375 C 11.691406 -7.828125 16.316406 -8.40625 21.390625 -8.21875 C 26.472656 -8.039062 31.769531 -7.300781 37.28125 -6 C 42.800781 -4.695312 48.265625 -3.015625 53.671875 -0.953125 C 54.023438 -2.085938 54.34375 -3.238281 54.625 -4.40625 C 54.914062 -5.570312 55.21875 -6.804688 55.53125 -8.109375 C 56 -10.222656 56.257812 -12.421875 56.3125 -14.703125 C 56.375 -16.984375 56.289062 -19.210938 56.0625 -21.390625 C 53.800781 -19.234375 50.925781 -17.40625 47.4375 -15.90625 C 43.945312 -14.414062 39.976562 -13.453125 35.53125 -13.015625 C 31.09375 -12.585938 26.320312 -12.875 21.21875 -13.875 C 16.300781 -14.78125 12.640625 -16.851562 10.234375 -20.09375 C 7.835938 -23.332031 6.609375 -27.296875 6.546875 -31.984375 C 6.484375 -36.679688 7.53125 -41.703125 9.6875 -47.046875 C 11.851562 -52.398438 15.050781 -57.617188 19.28125 -62.703125 L 40.109375 -58.859375 C 37.222656 -55.609375 34.554688 -52.28125 32.109375 -48.875 C 29.660156 -45.46875 27.769531 -42.273438 26.4375 -39.296875 C 25.101562 -36.328125 24.625 -33.820312 25 -31.78125 C 25.375 -29.75 26.910156 -28.484375 29.609375 -27.984375 C 33.753906 -27.222656 37.21875 -27.316406 40 -28.265625 C 42.789062 -29.222656 44.734375 -30.847656 45.828125 -33.140625 C 46.929688 -35.441406 47.03125 -38.179688 46.125 -41.359375 L 46.53125 -41.28125 Z M 71.65625 7.9375 C 76.425781 10.695312 81.238281 14.035156 86.09375 17.953125 C 90.945312 21.878906 95.800781 26.40625 100.65625 31.53125 L 95.421875 59.9375 C 89.203125 51.78125 83.59375 44.867188 78.59375 39.203125 C 73.601562 33.535156 68.921875 28.789062 64.546875 24.96875 C 66.023438 22.382812 67.34375 19.679688 68.5 16.859375 C 69.664062 14.035156 70.71875 11.0625 71.65625 7.9375 Z M 23.421875 28.765625 C 28.546875 29.703125 33.09375 28.695312 37.0625 25.75 C 41.039062 22.8125 44.507812 18.753906 47.46875 13.578125 C 43.78125 11.828125 39.847656 10.347656 35.671875 9.140625 C 31.503906 7.941406 27.53125 7.226562 23.75 7 C 19.96875 6.769531 16.765625 7.269531 14.140625 8.5 C 11.515625 9.726562 9.914062 11.898438 9.34375 15.015625 C 8.769531 18.117188 9.691406 20.945312 12.109375 23.5 C 14.535156 26.0625 18.304688 27.816406 23.421875 28.765625 Z M 23.421875 28.765625 "/></g></g></g></g></g><g transform="matrix(1, 0, 0, 1, 106, 7)"><g clip-path="url(#cbcf324b86)"><g fill="#1e1e1e" fill-opacity="1"><g transform="translate(86.578666, 66.826804)"><g><path d="M -21.765625 47 C -21.421875 48.15625 -21.007812 49.203125 -20.53125 50.140625 C -19.613281 51.960938 -18.273438 53.175781 -16.515625 53.78125 C -14.753906 54.394531 -12.648438 54.082031 -10.203125 52.84375 C -7.503906 51.476562 -5.601562 49.613281 -4.5 47.25 C -3.40625 44.894531 -2.992188 42.3125 -3.265625 39.5 C -3.546875 36.6875 -4.398438 33.867188 -5.828125 31.046875 C -8.140625 26.460938 -11.023438 23.273438 -14.484375 21.484375 C -17.953125 19.691406 -21.664062 18.960938 -25.625 19.296875 C -29.59375 19.640625 -33.425781 20.75 -37.125 22.625 C -39.082031 23.601562 -41.019531 24.710938 -42.9375 25.953125 C -44.863281 27.203125 -46.6875 28.625 -48.40625 30.21875 L -56.578125 14.015625 C -54.578125 12.523438 -52.585938 11.125 -50.609375 9.8125 C -48.628906 8.507812 -46.632812 7.351562 -44.625 6.34375 C -39.226562 3.613281 -33.847656 2.019531 -28.484375 1.5625 C -23.128906 1.101562 -18.046875 1.664062 -13.234375 3.25 C -8.421875 4.832031 -4.078125 7.320312 -0.203125 10.71875 C 3.671875 14.125 6.875 18.335938 9.40625 23.359375 C 12.226562 28.953125 13.664062 34.609375 13.71875 40.328125 C 13.769531 46.046875 12.441406 51.296875 9.734375 56.078125 C 7.023438 60.859375 2.910156 64.644531 -2.609375 67.4375 C -7.628906 69.96875 -12.445312 71.175781 -17.0625 71.0625 C -21.675781 70.957031 -25.75 69.550781 -29.28125 66.84375 C -32.820312 64.144531 -35.429688 60.109375 -37.109375 54.734375 Z M -21.765625 47 "/></g></g></g></g></g><g transform="matrix(1, 0, 0, 1, 0, 0)"><g clip-path="url(#39e5a41ebe)"><g fill="#1e1e1e" fill-opacity="1"><g transform="translate(123.855811, 60.591474)"><g><path d="M -6.71875 73.5 C -10.945312 74.3125 -15.257812 74.117188 -19.65625 72.921875 C -24.0625 71.734375 -28.21875 69.867188 -32.125 67.328125 C -36.03125 64.796875 -39.398438 61.78125 -42.234375 58.28125 C -47.441406 51.832031 -51.738281 45.34375 -55.125 38.8125 C -58.507812 32.289062 -60.65625 25.894531 -61.5625 19.625 C -62.476562 13.351562 -61.847656 7.375 -59.671875 1.6875 C -57.492188 -4 -53.453125 -9.234375 -47.546875 -14.015625 C -42.359375 -18.210938 -37.019531 -21.0625 -31.53125 -22.5625 C -26.050781 -24.0625 -20.90625 -24.179688 -16.09375 -22.921875 C -11.28125 -21.671875 -7.300781 -19.097656 -4.15625 -15.203125 C -0.707031 -10.941406 1.273438 -6.695312 1.796875 -2.46875 C 2.328125 1.757812 1.738281 5.894531 0.03125 9.9375 C -1.664062 13.976562 -4.234375 17.863281 -7.671875 21.59375 C -11.117188 25.332031 -15.128906 28.875 -19.703125 32.21875 C -24.285156 35.5625 -29.117188 38.609375 -34.203125 41.359375 C -33.566406 42.378906 -32.898438 43.375 -32.203125 44.34375 C -31.503906 45.320312 -30.757812 46.351562 -29.96875 47.4375 C -28.664062 49.175781 -27.164062 50.804688 -25.46875 52.328125 C -23.78125 53.859375 -22.03125 55.25 -20.21875 56.5 C -20.382812 53.375 -19.898438 50 -18.765625 46.375 C -17.628906 42.75 -15.785156 39.109375 -13.234375 35.453125 C -10.679688 31.796875 -7.359375 28.359375 -3.265625 25.140625 C 0.617188 22.003906 4.570312 20.570312 8.59375 20.84375 C 12.613281 21.125 16.425781 22.765625 20.03125 25.765625 C 23.644531 28.773438 26.773438 32.84375 29.421875 37.96875 C 32.078125 43.09375 33.957031 48.914062 35.0625 55.4375 L 18.59375 68.75 C 18.007812 64.445312 17.21875 60.253906 16.21875 56.171875 C 15.21875 52.097656 14.023438 48.585938 12.640625 45.640625 C 11.253906 42.703125 9.664062 40.710938 7.875 39.671875 C 6.09375 38.628906 4.128906 38.972656 1.984375 40.703125 C -1.285156 43.347656 -3.460938 46.035156 -4.546875 48.765625 C -5.640625 51.503906 -5.671875 54.035156 -4.640625 56.359375 C -3.617188 58.691406 -1.609375 60.550781 1.390625 61.9375 L 1.0625 62.203125 Z M -52.65625 49.234375 C -57.851562 51.085938 -63.519531 52.578125 -69.65625 53.703125 C -75.800781 54.828125 -82.394531 55.566406 -89.4375 55.921875 L -107.59375 33.46875 C -97.351562 34.039062 -88.457031 34.273438 -80.90625 34.171875 C -73.351562 34.078125 -66.707031 33.609375 -60.96875 32.765625 C -59.96875 35.566406 -58.769531 38.328125 -57.375 41.046875 C -55.988281 43.765625 -54.414062 46.492188 -52.65625 49.234375 Z M -37.09375 -0.9375 C -41.144531 2.332031 -43.34375 6.4375 -43.6875 11.375 C -44.03125 16.320312 -43.195312 21.601562 -41.1875 27.21875 C -37.457031 25.5625 -33.78125 23.535156 -30.15625 21.140625 C -26.53125 18.753906 -23.398438 16.195312 -20.765625 13.46875 C -18.128906 10.75 -16.425781 7.992188 -15.65625 5.203125 C -14.882812 2.421875 -15.492188 -0.203125 -17.484375 -2.671875 C -19.472656 -5.117188 -22.226562 -6.257812 -25.75 -6.09375 C -29.269531 -5.925781 -33.050781 -4.207031 -37.09375 -0.9375 Z M -37.09375 -0.9375 "/></g></g></g></g></g><g transform="matrix(1, 0, 0, 1, 142, 178)"><g clip-path="url(#ca6d866291)"><g fill="#1e1e1e" fill-opacity="1"><g transform="translate(63.456347, 80.624133)"><g><path d="M -18.46875 1.203125 C -14.425781 -2.492188 -10.3125 -4.738281 -6.125 -5.53125 C -1.9375 -6.320312 2.222656 -5.992188 6.359375 -4.546875 C 10.492188 -3.097656 14.53125 -0.769531 18.46875 2.4375 C 22.414062 5.644531 26.195312 9.425781 29.8125 13.78125 C 33.425781 18.144531 36.769531 22.785156 39.84375 27.703125 C 40.8125 26.992188 41.757812 26.265625 42.6875 25.515625 C 43.613281 24.765625 44.597656 23.960938 45.640625 23.109375 C 48.367188 20.679688 50.785156 17.859375 52.890625 14.640625 C 55.003906 11.429688 56.625 8.125 57.75 4.71875 C 58.875 1.3125 59.3125 -1.925781 59.0625 -5 C 58.820312 -8.070312 57.726562 -10.671875 55.78125 -12.796875 C 53.539062 -15.234375 51.148438 -16.691406 48.609375 -17.171875 C 46.066406 -17.648438 43.835938 -17.007812 41.921875 -15.25 C 40.109375 -13.59375 39.304688 -11.453125 39.515625 -8.828125 C 39.722656 -6.210938 40.945312 -3.6875 43.1875 -1.25 C 44.5625 0.25 46.242188 1.5625 48.234375 2.6875 C 50.234375 3.820312 52.359375 4.785156 54.609375 5.578125 C 53.710938 7.835938 52.53125 10.113281 51.0625 12.40625 C 49.59375 14.695312 47.921875 16.851562 46.046875 18.875 C 43.304688 17.5625 40.671875 15.96875 38.140625 14.09375 C 35.617188 12.21875 33.503906 10.347656 31.796875 8.484375 C 28.140625 4.484375 25.675781 0.179688 24.40625 -4.421875 C 23.144531 -9.023438 22.988281 -13.429688 23.9375 -17.640625 C 24.894531 -21.859375 26.925781 -25.390625 30.03125 -28.234375 C 33.132812 -31.085938 36.84375 -32.816406 41.15625 -33.421875 C 45.46875 -34.035156 49.859375 -33.507812 54.328125 -31.84375 C 58.804688 -30.1875 62.875 -27.359375 66.53125 -23.359375 C 70.332031 -19.210938 73.007812 -14.707031 74.5625 -9.84375 C 76.113281 -4.976562 76.332031 0.164062 75.21875 5.59375 C 78.082031 4.769531 80.90625 3.5625 83.6875 1.96875 C 86.46875 0.375 89.203125 -1.65625 91.890625 -4.125 L 107.0625 12.421875 C 100.582031 18.359375 93.84375 22.34375 86.84375 24.375 C 79.84375 26.40625 72.765625 26.84375 65.609375 25.6875 C 63.179688 28.769531 60.382812 31.765625 57.21875 34.671875 C 51.113281 40.265625 44.832031 44.875 38.375 48.5 C 31.925781 52.125 25.503906 54.476562 19.109375 55.5625 C 12.722656 56.65625 6.550781 56.210938 0.59375 54.234375 C -5.363281 52.253906 -10.910156 48.46875 -16.046875 42.875 C -20.554688 37.945312 -23.609375 32.925781 -25.203125 27.8125 C -26.796875 22.695312 -26.992188 17.828125 -25.796875 13.203125 C -24.597656 8.585938 -22.15625 4.585938 -18.46875 1.203125 Z M 32.90625 54.9375 C 35.644531 53.769531 38.328125 52.40625 40.953125 50.84375 C 43.585938 49.289062 46.21875 47.550781 48.84375 45.625 C 51 50.695312 52.828125 56.257812 54.328125 62.3125 C 55.835938 68.375 56.984375 74.910156 57.765625 81.921875 L 36.46875 101.4375 C 36.425781 91.1875 36.117188 82.289062 35.546875 74.75 C 34.972656 67.21875 34.09375 60.613281 32.90625 54.9375 Z M -5.15625 13.734375 C -7.476562 15.859375 -8.679688 18.414062 -8.765625 21.40625 C -8.847656 24.394531 -7.132812 27.804688 -3.625 31.640625 C -0.113281 35.472656 4.351562 37.664062 9.78125 38.21875 C 15.207031 38.78125 20.660156 37.882812 26.140625 35.53125 C 24.253906 31.914062 22.003906 28.375 19.390625 24.90625 C 16.785156 21.4375 14.046875 18.46875 11.171875 16 C 8.296875 13.539062 5.4375 12.007812 2.59375 11.40625 C -0.238281 10.8125 -2.820312 11.585938 -5.15625 13.734375 Z M -5.15625 13.734375 "/></g></g></g></g></g><g clip-path="url(#bdf9f63934)"><g clip-path="url(#47943379a8)"><g clip-path="url(#1b9d30ebbf)"><path fill="#1e1e1e" d="M 241.945312 21.6875 C 241.144531 19.042969 240.296875 16.3125 238.472656 14.234375 C 236.648438 12.160156 233.5625 10.925781 231.050781 12.078125 C 228.507812 13.246094 227.480469 16.273438 226.867188 19.003906 C 222.75 37.34375 225.601562 57.164062 234.722656 73.601562 C 236.054688 76.804688 237.289062 79.257812 239.792969 81.652344 C 242.300781 84.050781 246.238281 85.308594 249.316406 83.710938 C 253.535156 81.519531 253.894531 75.695312 253.425781 70.964844 C 251.761719 54.152344 246.84375 37.855469 241.945312 21.6875 Z M 241.945312 21.6875 " fill-opacity="1" fill-rule="nonzero"/></g></g></g><g clip-path="url(#b022b209f1)"><g clip-path="url(#82abdcfb84)"><g clip-path="url(#7efcda3513)"><path fill="#1e1e1e" d="M 290.832031 14.398438 C 289.390625 11.320312 285.53125 10.066406 282.148438 10.40625 C 276.0625 11.015625 270.972656 15.636719 268.132812 21.054688 C 265.292969 26.46875 264.320312 32.640625 263.386719 38.683594 C 261.332031 51.960938 259.285156 65.535156 260.78125 78.808594 C 261.085938 81.480469 261.242188 84.167969 261.210938 86.859375 C 261.1875 88.847656 262.519531 91.0625 264.371094 91.507812 C 266.863281 92.109375 269.492188 90.679688 271.054688 88.648438 C 272.621094 86.617188 273.34375 84.078125 274.035156 81.609375 C 279.535156 61.929688 285.03125 42.253906 290.53125 22.574219 C 291.28125 19.886719 292.015625 16.921875 290.832031 14.398438 Z M 290.832031 14.398438 " fill-opacity="1" fill-rule="nonzero"/></g></g></g><g clip-path="url(#42402ddb0c)"><g clip-path="url(#9e387bf1be)"><g clip-path="url(#01ec8e3ae4)"><path fill="#1e1e1e" d="M 328.652344 43.964844 C 329.460938 40.859375 330.046875 37.289062 328.199219 34.664062 C 326.453125 32.183594 322.953125 31.429688 320.007812 32.160156 C 317.0625 32.894531 314.570312 34.828125 312.328125 36.871094 C 296.410156 51.359375 288.882812 72.644531 281.933594 93.015625 C 281.28125 96.394531 282.277344 103.675781 285.707031 103.433594 C 286.699219 103.367188 287.570312 102.785156 288.382812 102.210938 C 308.058594 88.304688 322.59375 67.285156 328.652344 43.964844 Z M 328.652344 43.964844 " fill-opacity="1" fill-rule="nonzero"/></g></g></g><g clip-path="url(#7751c94885)"><g clip-path="url(#b6a5ee9448)"><g clip-path="url(#e2604abdb8)"><path fill="#1e1e1e" d="M 354.558594 97.933594 C 353.636719 96.570312 352.070312 95.785156 350.507812 95.269531 C 342.394531 92.597656 333.617188 95.777344 325.777344 99.175781 C 316.058594 103.386719 306.511719 107.988281 297.164062 112.972656 C 294.417969 113.558594 291.496094 115.253906 289.597656 117.316406 C 287.695312 119.378906 286.976562 122.738281 288.59375 125.03125 C 290.5 127.730469 294.40625 127.796875 297.703125 127.589844 C 307.8125 126.957031 318.019531 126.304688 327.753906 123.496094 C 337.488281 120.683594 346.847656 115.496094 352.851562 107.332031 C 354.867188 104.59375 356.464844 100.75 354.558594 97.933594 Z M 354.558594 97.933594 " fill-opacity="1" fill-rule="nonzero"/></g></g></g></svg>