<svg xmlns="http://www.w3.org/2000/svg" xmlns:xlink="http://www.w3.org/1999/xlink" width="500" zoomAndPan="magnify" viewBox="0 0 375 374.999991" height="500" preserveAspectRatio="xMidYMid meet" version="1.0"><defs><g/><clipPath id="07c9b23eb4"><rect x="0" width="358" y="0" height="204"/></clipPath><clipPath id="8ea9915748"><rect x="0" width="375" y="0" height="302"/></clipPath><clipPath id="8c40db65e7"><path d="M 193 45 L 223 45 L 223 119 L 193 119 Z M 193 45 " clip-rule="nonzero"/></clipPath><clipPath id="cf127e8fd3"><path d="M 190.9375 44.976562 L 323.664062 42.507812 L 325.851562 160.238281 L 193.125 162.707031 Z M 190.9375 44.976562 " clip-rule="nonzero"/></clipPath><clipPath id="22bf81d280"><path d="M 190.9375 44.976562 L 323.664062 42.507812 L 325.851562 160.238281 L 193.125 162.707031 Z M 190.9375 44.976562 " clip-rule="nonzero"/></clipPath><clipPath id="f5b473c85e"><path d="M 228 44 L 261 44 L 261 126 L 228 126 Z M 228 44 " clip-rule="nonzero"/></clipPath><clipPath id="1ca0888f29"><path d="M 190.9375 44.976562 L 323.664062 42.507812 L 325.851562 160.238281 L 193.125 162.707031 Z M 190.9375 44.976562 " clip-rule="nonzero"/></clipPath><clipPath id="47bb2ff6d5"><path d="M 190.9375 44.976562 L 323.664062 42.507812 L 325.851562 160.238281 L 193.125 162.707031 Z M 190.9375 44.976562 " clip-rule="nonzero"/></clipPath><clipPath id="692428a0e7"><path d="M 250 65 L 299 65 L 299 138 L 250 138 Z M 250 65 " clip-rule="nonzero"/></clipPath><clipPath id="f4c0ecf0f9"><path d="M 190.9375 44.976562 L 323.664062 42.507812 L 325.851562 160.238281 L 193.125 162.707031 Z M 190.9375 44.976562 " clip-rule="nonzero"/></clipPath><clipPath id="5d84572c6b"><path d="M 190.9375 44.976562 L 323.664062 42.507812 L 325.851562 160.238281 L 193.125 162.707031 Z M 190.9375 44.976562 " clip-rule="nonzero"/></clipPath><clipPath id="2fa118bed7"><path d="M 256 128 L 325 128 L 325 162 L 256 162 Z M 256 128 " clip-rule="nonzero"/></clipPath><clipPath id="68f0aab94c"><path d="M 190.9375 44.976562 L 323.664062 42.507812 L 325.851562 160.238281 L 193.125 162.707031 Z M 190.9375 44.976562 " clip-rule="nonzero"/></clipPath><clipPath id="c2e51963e5"><path d="M 190.9375 44.976562 L 323.664062 42.507812 L 325.851562 160.238281 L 193.125 162.707031 Z M 190.9375 44.976562 " clip-rule="nonzero"/></clipPath></defs><g transform="matrix(1, 0, 0, 1, 6, 171)"><g clip-path="url(#07c9b23eb4)"><g fill="#ffffff" fill-opacity="1"><g transform="translate(64.370922, 158.612191)"><g><path d="M -10.109375 -95.625 C -15.753906 -89.738281 -18.660156 -83.84375 -18.828125 -77.9375 C -19.003906 -72.03125 -17.351562 -65.753906 -13.875 -59.109375 C -9.34375 -61.984375 -5.847656 -64.203125 -3.390625 -65.765625 C -0.929688 -67.328125 0.816406 -68.4375 1.859375 -69.09375 C 2.910156 -69.757812 3.5625 -70.148438 3.8125 -70.265625 C 4.070312 -70.390625 4.203125 -70.453125 4.203125 -70.453125 L 13.125 -56.375 C 12.914062 -56.132812 11.878906 -55.378906 10.015625 -54.109375 C 8.148438 -52.835938 5.894531 -51.34375 3.25 -49.625 C 0.601562 -47.90625 -2.023438 -46.210938 -4.640625 -44.546875 C -4.035156 -43.734375 -3.429688 -42.921875 -2.828125 -42.109375 C -2.222656 -41.296875 -1.59375 -40.445312 -0.9375 -39.5625 C 1.675781 -36.164062 4.785156 -32.53125 8.390625 -28.65625 C 12.003906 -24.78125 15.765625 -21.132812 19.671875 -17.71875 C 23.585938 -14.3125 27.289062 -11.457031 30.78125 -9.15625 L 13.25 1.953125 C 10.914062 0.296875 8.351562 -1.785156 5.5625 -4.296875 C 2.769531 -6.804688 -0.0234375 -9.539062 -2.828125 -12.5 C -5.628906 -15.46875 -8.273438 -18.410156 -10.765625 -21.328125 C -13.265625 -24.253906 -15.425781 -26.9375 -17.25 -29.375 C -23.800781 -38.113281 -29.160156 -46.640625 -33.328125 -54.953125 C -37.492188 -63.265625 -40.160156 -71.28125 -41.328125 -79 C -42.503906 -86.726562 -41.851562 -94.046875 -39.375 -100.953125 C -36.894531 -107.859375 -32.300781 -114.222656 -25.59375 -120.046875 Z M -10.109375 -95.625 "/></g></g></g><g fill="#ffffff" fill-opacity="1"><g transform="translate(96.412123, 136.420315)"><g><path d="M 46.109375 -93.84375 C 47.054688 -90.957031 47.625 -87.359375 47.8125 -83.046875 C 48 -78.734375 47.679688 -74.023438 46.859375 -68.921875 C 46.046875 -63.828125 44.539062 -58.585938 42.34375 -53.203125 C 40.144531 -47.816406 37.203125 -42.507812 33.515625 -37.28125 C 29.828125 -32.0625 25.222656 -27.210938 19.703125 -22.734375 C 14.179688 -18.265625 7.601562 -14.453125 -0.03125 -11.296875 L -6.515625 -31 C -1.796875 -33.050781 2.304688 -35.253906 5.796875 -37.609375 C 4.203125 -40.203125 2.597656 -43.21875 0.984375 -46.65625 C -0.628906 -50.09375 -2.335938 -54.539062 -4.140625 -60 C -5.960938 -65.539062 -7.078125 -71.226562 -7.484375 -77.0625 C -7.890625 -82.90625 -7.5 -88.4375 -6.3125 -93.65625 C -5.125 -98.882812 -3.113281 -103.410156 -0.28125 -107.234375 C 2.550781 -111.066406 6.289062 -113.75 10.9375 -115.28125 C 16.695312 -117.175781 21.867188 -117.484375 26.453125 -116.203125 C 31.046875 -114.929688 34.984375 -112.363281 38.265625 -108.5 C 41.546875 -104.632812 44.160156 -99.75 46.109375 -93.84375 Z M 19.90625 -51.453125 C 23.070312 -56.015625 25.3125 -60.578125 26.625 -65.140625 C 27.945312 -69.710938 28.578125 -74.015625 28.515625 -78.046875 C 28.453125 -82.078125 27.984375 -85.421875 27.109375 -88.078125 C 24.785156 -95.160156 21.445312 -97.988281 17.09375 -96.5625 C 15.03125 -95.882812 13.5625 -94.378906 12.6875 -92.046875 C 11.8125 -89.710938 11.378906 -86.910156 11.390625 -83.640625 C 11.398438 -80.378906 11.75 -76.957031 12.4375 -73.375 C 13.132812 -69.800781 14.003906 -66.425781 15.046875 -63.25 C 15.796875 -60.957031 16.578125 -58.820312 17.390625 -56.84375 C 18.203125 -54.863281 19.039062 -53.066406 19.90625 -51.453125 Z M 32.96875 -31.46875 C 38.457031 -25.5 44.414062 -21.628906 50.84375 -19.859375 C 57.28125 -18.085938 63.476562 -17.726562 69.4375 -18.78125 L 77.40625 5.46875 C 72.957031 6.351562 68.140625 6.566406 62.953125 6.109375 C 57.765625 5.648438 52.539062 4.441406 47.28125 2.484375 C 42.019531 0.535156 36.910156 -2.175781 31.953125 -5.65625 C 26.992188 -9.144531 22.453125 -13.441406 18.328125 -18.546875 C 20.929688 -20.054688 22.960938 -21.457031 24.421875 -22.75 C 25.878906 -24.050781 27.21875 -25.390625 28.4375 -26.765625 C 29.664062 -28.148438 31.175781 -29.71875 32.96875 -31.46875 Z M 32.96875 -31.46875 "/></g></g></g><g fill="#ffffff" fill-opacity="1"><g transform="translate(149.443407, 117.932352)"><g><path d="M 61.09375 -27.171875 C 61.175781 -22.671875 59.988281 -18.394531 57.53125 -14.34375 C 55.070312 -10.300781 51.671875 -7 47.328125 -4.4375 C 42.984375 -1.875 37.972656 -0.503906 32.296875 -0.328125 C 32.222656 -0.328125 32.164062 -0.363281 32.125 -0.4375 C 32.082031 -0.519531 32.0625 -0.5625 32.0625 -0.5625 C 31.988281 -0.550781 31.953125 -0.503906 31.953125 -0.421875 C 31.953125 -0.347656 31.953125 -0.3125 31.953125 -0.3125 C 28.210938 -0.25 24.5625 -0.828125 21 -2.046875 C 17.445312 -3.265625 14.25 -5.015625 11.40625 -7.296875 C 8.570312 -9.585938 6.289062 -12.332031 4.5625 -15.53125 C 2.84375 -18.726562 1.945312 -22.269531 1.875 -26.15625 C 1.789062 -30.820312 3 -35.140625 5.5 -39.109375 C 8 -43.078125 11.460938 -46.28125 15.890625 -48.71875 C 20.316406 -51.164062 25.367188 -52.4375 31.046875 -52.53125 L 31.15625 -52.546875 C 31.15625 -52.546875 31.191406 -52.546875 31.265625 -52.546875 C 31.347656 -52.546875 31.390625 -52.546875 31.390625 -52.546875 C 36.753906 -52.640625 41.671875 -51.597656 46.140625 -49.421875 C 50.609375 -47.242188 54.195312 -44.234375 56.90625 -40.390625 C 59.613281 -36.554688 61.007812 -32.148438 61.09375 -27.171875 Z M 31.78125 -17.125 C 35.195312 -17.175781 37.859375 -18.09375 39.765625 -19.875 C 41.679688 -21.65625 42.65625 -23.984375 42.6875 -26.859375 C 42.644531 -29.585938 41.613281 -31.785156 39.59375 -33.453125 C 37.582031 -35.128906 34.867188 -35.941406 31.453125 -35.890625 C 28.035156 -35.828125 25.332031 -34.921875 23.34375 -33.171875 C 21.351562 -31.429688 20.378906 -29.195312 20.421875 -26.46875 C 20.472656 -23.675781 21.523438 -21.40625 23.578125 -19.65625 C 25.628906 -17.90625 28.363281 -17.0625 31.78125 -17.125 Z M 31.78125 -17.125 "/></g></g></g><g fill="#ffffff" fill-opacity="1"><g transform="translate(209.536518, 111.037091)"><g><path d="M 125.578125 -18.75 L 113.828125 -20.59375 C 113.460938 -14.570312 112.363281 -8.53125 110.53125 -2.46875 C 108.707031 3.59375 106.296875 9.300781 103.296875 14.65625 C 100.296875 20.007812 96.847656 24.644531 92.953125 28.5625 C 89.054688 32.476562 84.84375 35.332031 80.3125 37.125 C 75.789062 38.914062 71.144531 39.253906 66.375 38.140625 C 62.082031 35.140625 58.894531 31.273438 56.8125 26.546875 C 54.726562 21.816406 53.101562 17.050781 51.9375 12.25 C 49.1875 15.71875 45.785156 18.488281 41.734375 20.5625 C 37.691406 22.644531 33.394531 23.175781 28.84375 22.15625 C 23.851562 18.601562 19.890625 14.320312 16.953125 9.3125 C 14.015625 4.300781 12.203125 -1.113281 11.515625 -6.9375 C 10.828125 -12.757812 11.359375 -18.613281 13.109375 -24.5 C 14.859375 -30.394531 17.867188 -35.984375 22.140625 -41.265625 L 40.90625 -33.265625 C 38.457031 -30.679688 36.46875 -27.535156 34.9375 -23.828125 C 33.40625 -20.128906 32.363281 -16.347656 31.8125 -12.484375 C 31.257812 -8.628906 31.285156 -5.03125 31.890625 -1.6875 C 32.503906 1.65625 33.71875 4.257812 35.53125 6.125 C 39.40625 5.34375 42.695312 2.972656 45.40625 -0.984375 C 48.113281 -4.953125 50.738281 -9.734375 53.28125 -15.328125 L 53.5 -15.234375 L 69.84375 -10.171875 C 68.507812 -6.847656 67.945312 -3.242188 68.15625 0.640625 C 68.363281 4.523438 69.085938 8.171875 70.328125 11.578125 C 71.578125 14.984375 73.140625 17.675781 75.015625 19.65625 C 78.242188 19 81.15625 17.21875 83.75 14.3125 C 86.34375 11.40625 88.554688 7.785156 90.390625 3.453125 C 92.234375 -0.867188 93.644531 -5.609375 94.625 -10.765625 C 95.601562 -15.929688 96.078125 -21.117188 96.046875 -26.328125 C 96.023438 -31.535156 95.421875 -36.414062 94.234375 -40.96875 C 98.796875 -40.539062 103.976562 -40.398438 109.78125 -40.546875 C 115.59375 -40.703125 122.601562 -40.890625 130.8125 -41.109375 Z M 125.578125 -18.75 "/></g></g></g></g></g><g transform="matrix(1, 0, 0, 1, 0, 36)"><g clip-path="url(#8ea9915748)"><g fill="#ffffff" fill-opacity="1"><g transform="translate(34.574429, 166.86207)"><g><path d="M 72.375 -75.375 C 76.613281 -76.53125 80.3125 -76.363281 83.46875 -74.875 C 86.625 -73.382812 89.238281 -70.878906 91.3125 -67.359375 C 93.382812 -63.847656 94.90625 -59.59375 95.875 -54.59375 C 96.84375 -49.59375 97.238281 -44.113281 97.0625 -38.15625 C 96.882812 -32.207031 96.144531 -26.0625 94.84375 -19.71875 L 72.328125 -13.578125 C 73.554688 -18.722656 74.507812 -23.851562 75.1875 -28.96875 C 75.875 -34.09375 76.097656 -38.695312 75.859375 -42.78125 C 75.628906 -46.875 74.820312 -49.988281 73.4375 -52.125 C 72.050781 -54.269531 69.910156 -54.953125 67.015625 -54.171875 C 63.742188 -53.273438 61.179688 -51.535156 59.328125 -48.953125 C 57.484375 -46.378906 56.453125 -43.425781 56.234375 -40.09375 C 56.960938 -35.414062 57.179688 -30.382812 56.890625 -25 C 56.597656 -19.613281 55.863281 -14.09375 54.6875 -8.4375 L 32.1875 -2.296875 C 33.414062 -7.410156 34.363281 -12.550781 35.03125 -17.71875 C 35.707031 -22.894531 35.941406 -27.550781 35.734375 -31.6875 C 35.523438 -35.832031 34.722656 -38.988281 33.328125 -41.15625 C 31.929688 -43.332031 29.785156 -44.023438 26.890625 -43.234375 C 22.503906 -42.046875 19.429688 -39.476562 17.671875 -35.53125 C 15.921875 -31.582031 15.628906 -27.171875 16.796875 -22.296875 C 17.773438 -20.160156 18.820312 -17.988281 19.9375 -15.78125 C 21.0625 -13.582031 22.316406 -11.390625 23.703125 -9.203125 L 6.421875 -4.5 C 0.554688 -13.757812 -3.878906 -22.523438 -6.890625 -30.796875 C -9.910156 -39.078125 -11.519531 -47.703125 -11.71875 -56.671875 L 10.90625 -62.84375 C 10.570312 -60.257812 10.367188 -57.625 10.296875 -54.9375 C 10.234375 -52.25 10.296875 -49.535156 10.484375 -46.796875 C 12.109375 -50.828125 14.644531 -54.410156 18.09375 -57.546875 C 21.550781 -60.691406 26.269531 -62.992188 32.25 -64.453125 C 36.269531 -65.546875 39.796875 -65.425781 42.828125 -64.09375 C 45.859375 -62.769531 48.429688 -60.554688 50.546875 -57.453125 C 52.078125 -61.546875 54.582031 -65.1875 58.0625 -68.375 C 61.539062 -71.5625 66.3125 -73.894531 72.375 -75.375 Z M 72.375 -75.375 "/></g></g></g><g fill="#ffffff" fill-opacity="1"><g transform="translate(135.764564, 145.270774)"><g><path d="M 25.40625 -59.390625 C 23.019531 -59.554688 20.890625 -60.300781 19.015625 -61.625 C 17.140625 -62.945312 15.675781 -64.644531 14.625 -66.71875 C 13.570312 -68.800781 13.128906 -71.035156 13.296875 -73.421875 C 13.460938 -75.878906 14.207031 -78.046875 15.53125 -79.921875 C 16.851562 -81.796875 18.535156 -83.257812 20.578125 -84.3125 C 22.617188 -85.375 24.832031 -85.820312 27.21875 -85.65625 C 29.675781 -85.488281 31.84375 -84.738281 33.71875 -83.40625 C 35.59375 -82.082031 37.054688 -80.398438 38.109375 -78.359375 C 39.171875 -76.316406 39.617188 -74.066406 39.453125 -71.609375 C 39.285156 -69.222656 38.535156 -67.070312 37.203125 -65.15625 C 35.878906 -63.25 34.195312 -61.769531 32.15625 -60.71875 C 30.113281 -59.664062 27.863281 -59.222656 25.40625 -59.390625 Z M 6.140625 -6.75 C 5.546875 -13.894531 5.554688 -21.054688 6.171875 -28.234375 C 6.785156 -35.410156 7.851562 -43.304688 9.375 -51.921875 L 27.234375 -50.6875 C 25.785156 -41.90625 25.226562 -33.816406 25.5625 -26.421875 C 25.894531 -19.023438 26.878906 -11.953125 28.515625 -5.203125 Z M 6.140625 -6.75 "/></g></g></g><g fill="#ffffff" fill-opacity="1"><g transform="translate(161.666751, 144.008264)"><g><path d="M 63.359375 -35.953125 C 68.191406 -34.378906 71.472656 -31.75 73.203125 -28.0625 C 74.929688 -24.382812 75.347656 -20.039062 74.453125 -15.03125 C 73.554688 -10.03125 71.566406 -4.710938 68.484375 0.921875 C 65.410156 6.554688 61.457031 12.132812 56.625 17.65625 C 51.800781 23.1875 46.367188 28.289062 40.328125 32.96875 L 17.71875 25.890625 C 20.8125 23.578125 24 20.90625 27.28125 17.875 C 30.570312 14.851562 33.734375 11.726562 36.765625 8.5 C 39.796875 5.28125 42.472656 2.082031 44.796875 -1.09375 C 47.117188 -4.269531 48.890625 -7.238281 50.109375 -10 C 51.328125 -12.757812 51.757812 -15.101562 51.40625 -17.03125 C 51.0625 -18.96875 49.679688 -20.328125 47.265625 -21.109375 C 42.941406 -22.515625 38.960938 -22.046875 35.328125 -19.703125 C 31.703125 -17.359375 29.046875 -13.828125 27.359375 -9.109375 C 27.015625 -6.796875 26.703125 -4.40625 26.421875 -1.9375 C 26.148438 0.519531 26.003906 3.039062 25.984375 5.625 L 8.9375 0.109375 C 9.09375 -10.847656 10.175781 -20.613281 12.1875 -29.1875 C 14.195312 -37.769531 17.566406 -45.875 22.296875 -53.5 L 44.609375 -46.265625 C 42.921875 -44.296875 41.3125 -42.203125 39.78125 -39.984375 C 38.257812 -37.765625 36.828125 -35.457031 35.484375 -33.0625 C 39.046875 -35.5625 43.128906 -37.175781 47.734375 -37.90625 C 52.347656 -38.644531 57.554688 -37.992188 63.359375 -35.953125 Z M 63.359375 -35.953125 "/></g></g></g><g fill="#ffffff" fill-opacity="1"><g transform="translate(225.898695, 162.552084)"><g><path d="M 126.75 -28.625 C 126.46875 -20.664062 124.890625 -13.523438 122.015625 -7.203125 C 119.148438 -0.878906 115.484375 4.679688 111.015625 9.484375 C 106.546875 14.285156 101.675781 18.351562 96.40625 21.6875 C 91.144531 25.03125 85.9375 27.644531 80.78125 29.53125 C 75.625 31.425781 71.003906 32.675781 66.921875 33.28125 C 65.898438 35.832031 64.628906 38.351562 63.109375 40.84375 C 61.597656 43.34375 59.910156 45.722656 58.046875 47.984375 L 40.421875 33.40625 C 43.035156 30.476562 45.222656 27.164062 46.984375 23.46875 C 48.742188 19.769531 49.960938 16.054688 50.640625 12.328125 C 51.328125 8.609375 51.3125 5.125 50.59375 1.875 C 49.875 -1.363281 48.296875 -3.988281 45.859375 -6 C 43.128906 -8.257812 40.421875 -9.421875 37.734375 -9.484375 C 35.046875 -9.554688 32.84375 -8.554688 31.125 -6.484375 C 29.457031 -4.460938 28.898438 -2.128906 29.453125 0.515625 C 30.003906 3.171875 31.644531 5.628906 34.375 7.890625 C 37.945312 10.835938 42.265625 12.753906 47.328125 13.640625 C 46.742188 16.160156 45.878906 18.742188 44.734375 21.390625 C 43.585938 24.035156 42.144531 26.59375 40.40625 29.0625 C 33.507812 26.550781 27.953125 23.550781 23.734375 20.0625 C 19.273438 16.382812 16.054688 12.203125 14.078125 7.515625 C 12.109375 2.835938 11.34375 -1.789062 11.78125 -6.375 C 12.226562 -10.957031 13.867188 -14.96875 16.703125 -18.40625 C 19.554688 -21.84375 23.191406 -24.207031 27.609375 -25.5 C 32.023438 -26.800781 36.703125 -26.90625 41.640625 -25.8125 C 46.585938 -24.726562 51.289062 -22.347656 55.75 -18.671875 C 60.738281 -14.546875 64.457031 -9.769531 66.90625 -4.34375 C 69.351562 1.082031 70.644531 6.742188 70.78125 12.640625 C 75.664062 11.078125 80.070312 8.644531 84 5.34375 C 87.925781 2.050781 91.304688 -1.765625 94.140625 -6.109375 C 96.984375 -10.453125 99.207031 -15.109375 100.8125 -20.078125 C 102.425781 -25.046875 103.335938 -30.039062 103.546875 -35.0625 C 103.753906 -40.09375 103.171875 -44.863281 101.796875 -49.375 Z M 126.75 -28.625 "/></g></g></g></g></g><g clip-path="url(#8c40db65e7)"><g clip-path="url(#cf127e8fd3)"><g clip-path="url(#22bf81d280)"><path fill="#a3c0bd" d="M 210.621094 55.539062 C 209.820312 52.894531 208.972656 50.164062 207.148438 48.089844 C 205.324219 46.011719 202.238281 44.777344 199.726562 45.933594 C 197.183594 47.101562 196.15625 50.125 195.542969 52.855469 C 191.425781 71.199219 194.273438 91.015625 203.398438 107.453125 C 204.730469 110.65625 205.964844 113.109375 208.46875 115.507812 C 210.976562 117.902344 214.914062 119.160156 217.992188 117.5625 C 222.210938 115.371094 222.570312 109.546875 222.101562 104.816406 C 220.4375 88.003906 215.515625 71.710938 210.621094 55.539062 Z M 210.621094 55.539062 " fill-opacity="1" fill-rule="nonzero"/></g></g></g><g clip-path="url(#f5b473c85e)"><g clip-path="url(#1ca0888f29)"><g clip-path="url(#47bb2ff6d5)"><path fill="#a3c0bd" d="M 259.507812 48.25 C 258.0625 45.171875 254.207031 43.917969 250.824219 44.257812 C 244.738281 44.867188 239.644531 49.488281 236.808594 54.90625 C 233.96875 60.324219 232.996094 66.492188 232.0625 72.535156 C 230.007812 85.816406 227.960938 99.386719 229.457031 112.660156 C 229.757812 115.335938 229.917969 118.023438 229.886719 120.710938 C 229.863281 122.699219 231.195312 124.914062 233.046875 125.363281 C 235.539062 125.964844 238.167969 124.53125 239.730469 122.5 C 241.296875 120.46875 242.019531 117.933594 242.710938 115.460938 C 248.207031 95.785156 253.707031 76.105469 259.207031 56.425781 C 259.957031 53.738281 260.691406 50.777344 259.507812 48.25 Z M 259.507812 48.25 " fill-opacity="1" fill-rule="nonzero"/></g></g></g><g clip-path="url(#692428a0e7)"><g clip-path="url(#f4c0ecf0f9)"><g clip-path="url(#5d84572c6b)"><path fill="#a3c0bd" d="M 297.328125 77.816406 C 298.136719 74.710938 298.722656 71.140625 296.875 68.519531 C 295.128906 66.035156 291.628906 65.285156 288.683594 66.015625 C 285.738281 66.746094 283.246094 68.679688 281.003906 70.722656 C 265.085938 85.210938 257.554688 106.5 250.609375 126.871094 C 249.957031 130.246094 250.953125 137.53125 254.382812 137.289062 C 255.375 137.21875 256.246094 136.636719 257.058594 136.0625 C 276.734375 122.15625 291.269531 101.136719 297.328125 77.816406 Z M 297.328125 77.816406 " fill-opacity="1" fill-rule="nonzero"/></g></g></g><g clip-path="url(#2fa118bed7)"><g clip-path="url(#68f0aab94c)"><g clip-path="url(#c2e51963e5)"><path fill="#a3c0bd" d="M 323.234375 131.785156 C 322.3125 130.421875 320.746094 129.640625 319.183594 129.125 C 311.070312 126.449219 302.292969 129.632812 294.453125 133.027344 C 284.734375 137.238281 275.183594 141.84375 265.839844 146.824219 C 263.09375 147.410156 260.171875 149.105469 258.269531 151.167969 C 256.371094 153.230469 255.652344 156.589844 257.269531 158.882812 C 259.171875 161.582031 263.078125 161.652344 266.378906 161.445312 C 276.488281 160.808594 286.695312 160.160156 296.429688 157.347656 C 306.164062 154.535156 315.523438 149.347656 321.527344 141.1875 C 323.542969 138.445312 325.140625 134.601562 323.234375 131.785156 Z M 323.234375 131.785156 " fill-opacity="1" fill-rule="nonzero"/></g></g></g></svg>